<?xml version="1.0" encoding="utf-8"?>
<!-- Generator: Adobe Illustrator 25.4.1, SVG Export Plug-In . SVG Version: 6.00 Build 0)  -->
<svg version="1.1" id="Layer_1" xmlns="http://www.w3.org/2000/svg" xmlns:xlink="http://www.w3.org/1999/xlink" x="0px" y="0px"
	 viewBox="0 0 180 64.8" style="enable-background:new 0 0 180 64.8;" xml:space="preserve">
<style type="text/css">
	.st0{fill:#374D9F;}
	.st1{fill:url(#SVGID_1_);}
	.st2{fill:url(#SVGID_00000079481510816353040230000005397556152268218000_);}
	.st3{fill:#574A9E;}
	.st4{fill:url(#SVGID_00000098932864437689430560000009523406516997210544_);}
	.st5{fill:url(#SVGID_00000163038937608076204630000010994994368368699566_);}
	.st6{fill:url(#SVGID_00000118370685344241913610000012629060100632866963_);}
	.st7{fill:url(#SVGID_00000006666858968845546220000002711851843497156028_);}
	.st8{fill:#19B7BC;}
	.st9{fill:#898A8D;}
	.st10{fill:url(#SVGID_00000055689567986526635410000014024130928603898287_);}
</style>
<g>
	<g>
		<path class="st0" d="M178.4,20.4h-17.9v2.4h7.6v13.6h2.6V22.8h7.6V20.4z M157.8,34h-14.1v-4.7h9.3v-2.4h-9.3v-4.1h13.4v-2.4h-16.1
			v16h16.7V34z M134.5,20.4h-2.6v13.1l-12.2-13.1h-3.3v16h2.6V23.3l12.2,13.1h3.3V20.4z M110.6,34H96.5v-4.7h9.3v-2.4h-9.3v-4.1H110
			v-2.4H93.9v16h16.7V34z M79.4,19.9c-2.8,0-5.1,0.7-7,2.1c-2.2,1.6-3.2,3.7-3.2,6.3c0,2.6,1.1,4.7,3.2,6.3c1.9,1.4,4.2,2.1,7,2.1
			c2,0,3.7-0.3,5.2-0.9c1.4-0.6,2.7-1.6,3.9-2.9l-2.3-1.3c-1.6,1.7-3.8,2.6-6.7,2.6c-2.3,0-4.2-0.6-5.6-1.7
			c-1.4-1.1-2.1-2.6-2.1-4.4c0-1.7,0.7-3.2,2.1-4.3c1.4-1.1,3.2-1.7,5.4-1.7c2.9,0,5.2,0.9,6.8,2.6l2.4-0.9
			C86.4,21.3,83.4,19.9,79.4,19.9 M53.6,30.4l4.1-7.7l4.1,7.7H53.6z M59.4,20.4h-3.3l-8.4,16h2.9l1.8-3.6h10.8l1.8,3.6h2.9
			L59.4,20.4z"/>
	</g>
	<linearGradient id="SVGID_1_" gradientUnits="userSpaceOnUse" x1="53.1682" y1="3.6527" x2="2.3157" y2="47.0849">
		<stop  offset="0.161" style="stop-color:#574A9E"/>
		<stop  offset="0.7006" style="stop-color:#19B7BC"/>
		<stop  offset="1" style="stop-color:#FFFFFF"/>
	</linearGradient>
	<path class="st1" d="M1.6,26.3l1.3,0.8L7,23.9l-5.2,2.3L1.6,26.3L1.6,26.3z M6.3,29.2l1.2,0.7l17.7-14l-8.5,3.7L6.3,29.2L6.3,29.2z
		 M20.6,45.9l11-8.7l5-7.8L20.1,44.6L20.6,45.9L20.6,45.9z M18.6,40.9l21.7-17.2l7.2-11.3L18.1,39.5L18.6,40.9L18.6,40.9z M53.2,3.6
		L46,6.8L2.3,47c0,0,0,0,0,0.1c0,0,0,0,0.1,0.1l46.6-36.9L53.2,3.6L53.2,3.6z M31.4,13.2L11,32l1.3,0.7L43.7,7.8L31.4,13.2
		L31.4,13.2z M22.1,49.6l0.6,1.4l0.2-0.1l3-4.7L22.1,49.6L22.1,49.6z"/>
	<path class="st3" d="M177.2,46.7c0.2-0.1,0.4-0.2,0.5-0.3s0.2-0.3,0.3-0.5c0.1-0.2,0.1-0.4,0.1-0.5c0-0.2,0-0.3-0.1-0.4
		c-0.1-0.1-0.1-0.2-0.2-0.3c-0.1-0.1-0.2-0.2-0.3-0.2c-0.1-0.1-0.3-0.1-0.4-0.1l-0.3-0.1c-0.1,0-0.2-0.1-0.3-0.1
		c-0.1-0.1-0.1-0.2-0.1-0.3c0-0.2,0.1-0.3,0.2-0.4c0.1-0.1,0.3-0.1,0.5-0.1c0.2,0,0.4,0,0.5,0.1c0.1,0.1,0.2,0.2,0.3,0.3l0.6-0.6
		c-0.1-0.2-0.3-0.3-0.6-0.4s-0.5-0.1-0.8-0.1c-0.2,0-0.4,0-0.6,0.1c-0.2,0.1-0.4,0.2-0.5,0.3c-0.1,0.1-0.2,0.3-0.3,0.4
		s-0.1,0.3-0.1,0.5c0,0.2,0,0.3,0.1,0.4c0,0.1,0.1,0.2,0.2,0.3c0.1,0.1,0.2,0.2,0.3,0.2c0.1,0.1,0.2,0.1,0.4,0.1l0.3,0.1
		c0.1,0,0.2,0.1,0.3,0.1c0.1,0.1,0.1,0.2,0.1,0.3c0,0.2-0.1,0.3-0.2,0.4c-0.1,0.1-0.3,0.2-0.6,0.2c-0.2,0-0.4,0-0.5-0.1
		c-0.1-0.1-0.2-0.2-0.3-0.4L175,46c0.1,0.3,0.3,0.5,0.6,0.6c0.3,0.1,0.6,0.2,0.9,0.2C176.8,46.8,177,46.7,177.2,46.7 M172.7,44.4
		l0.2-1.1h0.9c0.1,0,0.2,0,0.3,0.1c0.1,0.1,0.1,0.1,0.1,0.2c0,0,0,0.1,0,0.1c0,0.1,0,0.1,0,0.2c0,0.1-0.1,0.3-0.2,0.3
		c-0.1,0.1-0.2,0.1-0.3,0.1H172.7z M172.6,45.2h0.7l0.4,1.6h0.9l-0.5-1.7c0.2-0.1,0.3-0.1,0.4-0.2c0.1-0.1,0.2-0.2,0.3-0.3
		c0.1-0.1,0.1-0.3,0.2-0.4c0-0.2,0.1-0.3,0.1-0.5c0-0.3-0.1-0.6-0.3-0.8c-0.2-0.2-0.5-0.3-0.9-0.3h-1.6l-0.8,4.2h0.8L172.6,45.2z
		 M169.9,45H169l0.7-1.7h0L169.9,45z M170.9,46.7l-0.5-4.2h-1.1l-2.1,4.2h0.9l0.5-1h1.3l0.1,1H170.9z M167,46.7l0.2-0.8h-1.8l0.2-1
		h1.5l0.2-0.8h-1.5l0.2-0.9h1.7l0.1-0.8h-2.6l-0.8,4.2H167z M162.5,46.7l0.3-1.6l1.8-2.7h-0.9l-1.2,1.8h0l-0.5-1.8h-0.9l0.9,2.6
		l-0.3,1.6H162.5z"/>
	<path class="st3" d="M132.6,50.6c0.1,0,0.1,0,0.2,0.1c0.1,0,0.1,0.1,0.1,0.1c0,0.1,0.1,0.1,0.1,0.2c0,0.1,0,0.2-0.1,0.3
		c0,0.1-0.1,0.2-0.3,0.2c-0.1,0.1-0.3,0.1-0.5,0.1c-0.2,0-0.5,0.1-0.9,0.1l0-0.2c0-0.1,0.1-0.3,0.1-0.4c0.1-0.1,0.1-0.2,0.2-0.3
		c0.1-0.1,0.2-0.1,0.3-0.2c0.1,0,0.2-0.1,0.4-0.1C132.4,50.6,132.5,50.6,132.6,50.6 M132.6,53.5c0.2-0.1,0.4-0.3,0.6-0.5l-0.3-0.3
		c-0.1,0.2-0.3,0.3-0.4,0.4c-0.2,0.1-0.4,0.1-0.6,0.1c-0.3,0-0.4-0.1-0.6-0.2c-0.1-0.1-0.2-0.3-0.2-0.6c0,0,0-0.1,0-0.1s0-0.1,0-0.1
		c0.8,0,1.3-0.1,1.7-0.3c0.4-0.2,0.6-0.4,0.6-0.8c0-0.1,0-0.3-0.1-0.4c-0.1-0.1-0.1-0.2-0.2-0.3c-0.1-0.1-0.2-0.1-0.3-0.2
		c-0.1,0-0.3-0.1-0.4-0.1c-0.3,0-0.5,0.1-0.7,0.2c-0.2,0.1-0.4,0.3-0.5,0.5s-0.3,0.4-0.3,0.7c-0.1,0.2-0.1,0.5-0.1,0.8
		c0,0.5,0.1,0.8,0.3,1c0.2,0.2,0.5,0.4,0.9,0.4C132.2,53.6,132.4,53.6,132.6,53.5 M129.8,53.6l0.1-0.4h-0.6l0.5-2.4h0.7l0.1-0.4
		h-0.7l0.2-0.9h-0.4l-0.1,0.6c0,0.1-0.1,0.2-0.1,0.2c0,0-0.1,0.1-0.2,0.1h-0.2l-0.1,0.4h0.5l-0.5,2.3c0,0.1,0,0.1,0,0.2
		c0,0.1,0,0.2,0.1,0.3c0.1,0.1,0.2,0.1,0.3,0.1H129.8z M126.6,53.6l0.4-2c0-0.1,0.1-0.2,0.1-0.3c0.1-0.1,0.1-0.2,0.2-0.3
		c0.1-0.1,0.2-0.1,0.3-0.2c0.1,0,0.2-0.1,0.4-0.1h0.2l0.1-0.5h-0.2c-0.1,0-0.3,0-0.4,0.1c-0.1,0-0.2,0.1-0.3,0.2
		c-0.1,0.1-0.1,0.1-0.2,0.2s-0.1,0.2-0.2,0.2h0l0.1-0.7h-0.5l-0.7,3.3H126.6z M124.8,50.6c0.1,0,0.1,0,0.2,0.1s0.1,0.1,0.1,0.1
		c0,0.1,0.1,0.1,0.1,0.2c0,0.1,0,0.2-0.1,0.3c0,0.1-0.1,0.2-0.3,0.2c-0.1,0.1-0.3,0.1-0.5,0.1c-0.2,0-0.5,0.1-0.9,0.1l0-0.2
		c0-0.1,0.1-0.3,0.1-0.4c0.1-0.1,0.1-0.2,0.2-0.3c0.1-0.1,0.2-0.1,0.3-0.2c0.1,0,0.2-0.1,0.4-0.1C124.7,50.6,124.7,50.6,124.8,50.6
		 M124.9,53.5c0.2-0.1,0.4-0.3,0.6-0.5l-0.3-0.3c-0.1,0.2-0.3,0.3-0.4,0.4c-0.2,0.1-0.4,0.1-0.6,0.1c-0.3,0-0.4-0.1-0.6-0.2
		c-0.1-0.1-0.2-0.3-0.2-0.6c0,0,0-0.1,0-0.1c0,0,0-0.1,0-0.1c0.8,0,1.3-0.1,1.7-0.3c0.4-0.2,0.6-0.4,0.6-0.8c0-0.1,0-0.3-0.1-0.4
		s-0.1-0.2-0.2-0.3c-0.1-0.1-0.2-0.1-0.3-0.2c-0.1,0-0.3-0.1-0.4-0.1c-0.3,0-0.5,0.1-0.7,0.2s-0.4,0.3-0.5,0.5
		c-0.1,0.2-0.3,0.4-0.3,0.7c-0.1,0.2-0.1,0.5-0.1,0.8c0,0.5,0.1,0.8,0.3,1c0.2,0.2,0.5,0.4,0.9,0.4
		C124.4,53.6,124.6,53.6,124.9,53.5 M121.1,53.6l1.8-3.3h-0.5l-0.9,1.6l-0.6,1.2h0l-0.1-1.2l-0.2-1.6H120l0.5,3.3H121.1z
		 M116.8,50.3l-0.4,2c0,0.1,0,0.2,0,0.2c0,0.1,0,0.1,0,0.2c0,0.3,0.1,0.5,0.2,0.7c0.1,0.2,0.3,0.2,0.6,0.2c0.2,0,0.4-0.1,0.6-0.2
		c0.2-0.1,0.3-0.3,0.4-0.6h0l0,0.1c0,0.1,0,0.1,0,0.2c0,0.1,0,0.2,0.1,0.3c0.1,0.1,0.2,0.1,0.3,0.1h0.4l0.1-0.4h-0.5l0.6-2.9h-0.5
		l-0.4,1.8c0,0.1-0.1,0.3-0.1,0.4c-0.1,0.2-0.2,0.3-0.3,0.4c-0.2,0.2-0.4,0.3-0.6,0.3c-0.2,0-0.3,0-0.4-0.1
		c-0.1-0.1-0.1-0.2-0.1-0.4c0,0,0-0.1,0-0.1c0-0.1,0-0.1,0-0.2l0.4-2H116.8z M113.4,53c-0.1-0.1-0.2-0.3-0.2-0.6c0-0.1,0-0.2,0-0.3
		l0.1-0.5c0.1-0.3,0.2-0.6,0.4-0.8c0.2-0.2,0.4-0.3,0.6-0.3c0.2,0,0.4,0.1,0.6,0.2c0.1,0.1,0.2,0.3,0.2,0.6c0,0.1,0,0.2,0,0.3
		l-0.1,0.5c-0.1,0.3-0.2,0.6-0.4,0.8c-0.2,0.2-0.4,0.3-0.6,0.3C113.8,53.2,113.6,53.1,113.4,53 M114.6,53.5c0.2-0.1,0.4-0.3,0.5-0.5
		c0.1-0.2,0.3-0.4,0.3-0.7c0.1-0.3,0.1-0.5,0.1-0.8c0-0.2,0-0.4-0.1-0.6c-0.1-0.2-0.1-0.3-0.2-0.4c-0.1-0.1-0.2-0.2-0.4-0.3
		c-0.1-0.1-0.3-0.1-0.5-0.1c-0.2,0-0.5,0.1-0.7,0.2c-0.2,0.1-0.4,0.3-0.5,0.5c-0.1,0.2-0.3,0.4-0.3,0.7c-0.1,0.3-0.1,0.5-0.1,0.8
		c0,0.2,0,0.4,0.1,0.6c0.1,0.2,0.1,0.3,0.2,0.4c0.1,0.1,0.2,0.2,0.4,0.3c0.1,0.1,0.3,0.1,0.5,0.1C114.2,53.6,114.4,53.6,114.6,53.5
		 M111.6,53.4c0.2-0.2,0.4-0.4,0.5-0.7l-0.4-0.2c-0.1,0.2-0.3,0.4-0.4,0.5c-0.1,0.1-0.3,0.1-0.4,0.1c-0.3,0-0.4-0.1-0.6-0.2
		c-0.1-0.1-0.2-0.3-0.2-0.6c0,0,0-0.1,0-0.1c0-0.1,0-0.1,0-0.2l0.1-0.5c0.1-0.3,0.2-0.5,0.3-0.7c0.2-0.2,0.4-0.3,0.6-0.3
		c0.3,0,0.6,0.2,0.7,0.5l0.4-0.2c-0.1-0.2-0.2-0.4-0.4-0.6c-0.2-0.1-0.4-0.2-0.7-0.2c-0.2,0-0.5,0.1-0.7,0.2s-0.4,0.3-0.5,0.5
		c-0.1,0.2-0.2,0.4-0.3,0.7c-0.1,0.3-0.1,0.5-0.1,0.8c0,0.2,0,0.4,0.1,0.6c0.1,0.2,0.1,0.3,0.2,0.4c0.1,0.1,0.2,0.2,0.4,0.3
		c0.1,0.1,0.3,0.1,0.5,0.1C111.1,53.6,111.4,53.6,111.6,53.4 M109,48.8l-0.4-0.2l-0.7,1.1l0.3,0.2L109,48.8z M108.2,50.6
		c0.1,0,0.1,0,0.2,0.1s0.1,0.1,0.1,0.1c0,0.1,0.1,0.1,0.1,0.2c0,0.1,0,0.2-0.1,0.3c0,0.1-0.1,0.2-0.3,0.2c-0.1,0.1-0.3,0.1-0.5,0.1
		c-0.2,0-0.5,0.1-0.9,0.1l0-0.2c0-0.1,0.1-0.3,0.1-0.4c0.1-0.1,0.1-0.2,0.2-0.3c0.1-0.1,0.2-0.1,0.3-0.2c0.1,0,0.2-0.1,0.4-0.1
		C108.1,50.6,108.2,50.6,108.2,50.6 M108.3,53.5c0.2-0.1,0.4-0.3,0.6-0.5l-0.3-0.3c-0.1,0.2-0.3,0.3-0.4,0.4
		c-0.2,0.1-0.4,0.1-0.6,0.1c-0.3,0-0.4-0.1-0.6-0.2c-0.1-0.1-0.2-0.3-0.2-0.6c0,0,0-0.1,0-0.1c0,0,0-0.1,0-0.1
		c0.8,0,1.3-0.1,1.7-0.3c0.4-0.2,0.6-0.4,0.6-0.8c0-0.1,0-0.3-0.1-0.4s-0.1-0.2-0.2-0.3c-0.1-0.1-0.2-0.1-0.3-0.2
		c-0.1,0-0.3-0.1-0.4-0.1c-0.3,0-0.5,0.1-0.7,0.2s-0.4,0.3-0.5,0.5s-0.3,0.4-0.3,0.7c-0.1,0.2-0.1,0.5-0.1,0.8c0,0.5,0.1,0.8,0.3,1
		c0.2,0.2,0.5,0.4,0.9,0.4C107.8,53.6,108.1,53.6,108.3,53.5 M103.3,53c-0.1-0.1-0.1-0.3-0.1-0.5c0-0.1,0-0.2,0-0.3l0.1-0.5
		c0.1-0.3,0.2-0.6,0.4-0.7c0.2-0.2,0.4-0.3,0.7-0.3c0.1,0,0.3,0,0.4,0.1c0.1,0,0.2,0.1,0.2,0.2c0.1,0.1,0.1,0.2,0.1,0.2
		c0,0.1,0,0.2,0,0.3l-0.1,0.7c0,0.2-0.1,0.3-0.2,0.4c-0.1,0.1-0.2,0.2-0.3,0.4c-0.1,0.1-0.2,0.2-0.3,0.2c-0.1,0.1-0.2,0.1-0.4,0.1
		C103.5,53.2,103.4,53.1,103.3,53 M105.5,53.6l0.1-0.4h-0.5l0.9-4.3h-0.5l-0.4,2h0c0-0.1-0.1-0.2-0.1-0.3c-0.1-0.1-0.1-0.1-0.2-0.2
		c-0.1-0.1-0.2-0.1-0.3-0.1c-0.1,0-0.2,0-0.3,0c-0.3,0-0.5,0.1-0.7,0.2c-0.2,0.1-0.4,0.3-0.5,0.5c-0.1,0.2-0.2,0.5-0.3,0.7
		c-0.1,0.3-0.1,0.5-0.1,0.8c0,0.4,0.1,0.7,0.3,0.9c0.2,0.2,0.4,0.3,0.7,0.3c0.2,0,0.4-0.1,0.6-0.2c0.2-0.1,0.3-0.3,0.5-0.6h0l0,0.1
		c0,0.1,0,0.1,0,0.2c0,0.1,0,0.2,0.1,0.3c0.1,0.1,0.2,0.1,0.3,0.1H105.5z M98,53c-0.1-0.1-0.2-0.3-0.2-0.5c0-0.1,0-0.2,0-0.3
		l0.1-0.5c0.1-0.3,0.2-0.6,0.4-0.7c0.2-0.2,0.4-0.3,0.7-0.3c0.1,0,0.3,0,0.4,0.1c0.1,0,0.2,0.1,0.2,0.2c0.1,0.1,0.1,0.2,0.1,0.2
		c0,0.1,0,0.2,0,0.3l-0.1,0.7c0,0.2-0.1,0.3-0.1,0.4c-0.1,0.1-0.2,0.2-0.3,0.4c-0.1,0.1-0.2,0.2-0.3,0.2c-0.1,0.1-0.2,0.1-0.4,0.1
		C98.2,53.2,98.1,53.1,98,53 M100.2,53.6l0.1-0.4h-0.5l0.6-2.9h-0.5l-0.1,0.5h0c0-0.1-0.1-0.2-0.1-0.3c-0.1-0.1-0.1-0.1-0.2-0.2
		c-0.1-0.1-0.2-0.1-0.3-0.1c-0.1,0-0.2,0-0.3,0c-0.3,0-0.5,0.1-0.7,0.2c-0.2,0.1-0.4,0.3-0.5,0.5c-0.1,0.2-0.2,0.5-0.3,0.7
		s-0.1,0.5-0.1,0.8c0,0.4,0.1,0.7,0.3,0.9c0.2,0.2,0.4,0.3,0.7,0.3c0.2,0,0.4-0.1,0.6-0.2c0.2-0.1,0.3-0.3,0.4-0.6h0l0,0.1
		c0,0.1,0,0.1,0,0.2c0,0.1,0,0.2,0.1,0.3c0.1,0.1,0.2,0.1,0.3,0.1H100.2z M96.5,53.6l0.1-0.4h-0.5l0.9-4.3h-0.5L95.6,53
		c0,0.1,0,0.1,0,0.2c0,0.1,0,0.2,0.1,0.3c0.1,0.1,0.2,0.1,0.3,0.1H96.5z M92.1,53.6l0.4-2c0-0.1,0.1-0.2,0.1-0.3
		c0.1-0.1,0.1-0.2,0.2-0.3c0.1-0.1,0.2-0.1,0.3-0.2c0.1,0,0.2-0.1,0.4-0.1h0.2l0.1-0.5h-0.2c-0.1,0-0.3,0-0.4,0.1
		c-0.1,0-0.2,0.1-0.3,0.2c-0.1,0.1-0.1,0.1-0.2,0.2c-0.1,0.1-0.1,0.2-0.2,0.2h0l0.1-0.7h-0.5l-0.7,3.3H92.1z M90.2,50.6
		c0.1,0,0.1,0,0.2,0.1s0.1,0.1,0.1,0.1c0,0.1,0.1,0.1,0.1,0.2c0,0.1,0,0.2-0.1,0.3c0,0.1-0.1,0.2-0.3,0.2c-0.1,0.1-0.3,0.1-0.5,0.1
		c-0.2,0-0.5,0.1-0.9,0.1l0-0.2c0-0.1,0.1-0.3,0.1-0.4c0.1-0.1,0.1-0.2,0.2-0.3c0.1-0.1,0.2-0.1,0.3-0.2c0.1,0,0.2-0.1,0.4-0.1
		C90.1,50.6,90.2,50.6,90.2,50.6 M90.3,53.5c0.2-0.1,0.4-0.3,0.6-0.5l-0.3-0.3c-0.1,0.2-0.3,0.3-0.4,0.4c-0.2,0.1-0.4,0.1-0.6,0.1
		c-0.3,0-0.4-0.1-0.6-0.2c-0.1-0.1-0.2-0.3-0.2-0.6c0,0,0-0.1,0-0.1s0-0.1,0-0.1c0.8,0,1.3-0.1,1.7-0.3c0.4-0.2,0.6-0.4,0.6-0.8
		c0-0.1,0-0.3-0.1-0.4s-0.1-0.2-0.2-0.3c-0.1-0.1-0.2-0.1-0.3-0.2c-0.1,0-0.3-0.1-0.4-0.1c-0.3,0-0.5,0.1-0.7,0.2s-0.4,0.3-0.5,0.5
		c-0.1,0.2-0.3,0.4-0.3,0.7c-0.1,0.2-0.1,0.5-0.1,0.8c0,0.5,0.1,0.8,0.3,1c0.2,0.2,0.5,0.4,0.9,0.4C89.8,53.6,90.1,53.6,90.3,53.5
		 M86.4,53.6l0.4-2c0-0.1,0.1-0.2,0.1-0.3c0.1-0.1,0.1-0.2,0.2-0.3c0.1-0.1,0.2-0.1,0.3-0.2c0.1,0,0.2-0.1,0.4-0.1h0.2l0.1-0.5H88
		c-0.1,0-0.3,0-0.4,0.1c-0.1,0-0.2,0.1-0.3,0.2c-0.1,0.1-0.1,0.1-0.2,0.2S87,50.8,87,50.9h0l0.1-0.7h-0.5l-0.7,3.3H86.4z M85.4,48.8
		L85,48.6l-0.7,1.1l0.3,0.2L85.4,48.8z M84.6,50.6c0.1,0,0.1,0,0.2,0.1s0.1,0.1,0.1,0.1c0,0.1,0.1,0.1,0.1,0.2c0,0.1,0,0.2-0.1,0.3
		c0,0.1-0.1,0.2-0.3,0.2c-0.1,0.1-0.3,0.1-0.5,0.1c-0.2,0-0.5,0.1-0.9,0.1l0-0.2c0-0.1,0.1-0.3,0.1-0.4c0.1-0.1,0.1-0.2,0.2-0.3
		c0.1-0.1,0.2-0.1,0.3-0.2c0.1,0,0.2-0.1,0.4-0.1C84.5,50.6,84.5,50.6,84.6,50.6 M84.7,53.5c0.2-0.1,0.4-0.3,0.6-0.5L85,52.7
		c-0.1,0.2-0.3,0.3-0.4,0.4c-0.2,0.1-0.4,0.1-0.6,0.1c-0.3,0-0.4-0.1-0.6-0.2c-0.1-0.1-0.2-0.3-0.2-0.6c0,0,0-0.1,0-0.1
		c0,0,0-0.1,0-0.1c0.8,0,1.3-0.1,1.7-0.3c0.4-0.2,0.6-0.4,0.6-0.8c0-0.1,0-0.3-0.1-0.4s-0.1-0.2-0.2-0.3c-0.1-0.1-0.2-0.1-0.3-0.2
		c-0.1,0-0.3-0.1-0.4-0.1c-0.3,0-0.5,0.1-0.7,0.2c-0.2,0.1-0.4,0.3-0.5,0.5c-0.2,0.2-0.3,0.4-0.3,0.7c-0.1,0.2-0.1,0.5-0.1,0.8
		c0,0.5,0.1,0.8,0.3,1c0.2,0.2,0.5,0.4,0.9,0.4C84.2,53.6,84.4,53.6,84.7,53.5 M81.9,53.6l0.1-0.4h-0.5l0.9-4.3h-0.5L81,53
		c0,0.1,0,0.1,0,0.2c0,0.1,0,0.2,0.1,0.3c0.1,0.1,0.2,0.1,0.3,0.1H81.9z M80.4,48.8l-0.4-0.2l-0.7,1.1l0.3,0.2L80.4,48.8z
		 M79.6,50.6c0.1,0,0.1,0,0.2,0.1s0.1,0.1,0.1,0.1c0,0.1,0,0.1,0,0.2c0,0.1,0,0.2-0.1,0.3c0,0.1-0.1,0.2-0.3,0.2
		c-0.1,0.1-0.3,0.1-0.5,0.1c-0.2,0-0.5,0.1-0.9,0.1l0-0.2c0-0.1,0.1-0.3,0.1-0.4c0.1-0.1,0.1-0.2,0.2-0.3c0.1-0.1,0.2-0.1,0.3-0.2
		c0.1,0,0.2-0.1,0.4-0.1C79.4,50.6,79.5,50.6,79.6,50.6 M79.6,53.5c0.2-0.1,0.4-0.3,0.6-0.5L80,52.7c-0.1,0.2-0.3,0.3-0.4,0.4
		c-0.2,0.1-0.4,0.1-0.6,0.1c-0.3,0-0.4-0.1-0.6-0.2c-0.1-0.1-0.2-0.3-0.2-0.6c0,0,0-0.1,0-0.1s0-0.1,0-0.1c0.8,0,1.3-0.1,1.7-0.3
		c0.4-0.2,0.6-0.4,0.6-0.8c0-0.1,0-0.3-0.1-0.4s-0.1-0.2-0.2-0.3c-0.1-0.1-0.2-0.1-0.3-0.2c-0.1,0-0.3-0.1-0.4-0.1
		c-0.3,0-0.5,0.1-0.7,0.2c-0.2,0.1-0.4,0.3-0.5,0.5c-0.2,0.2-0.3,0.4-0.3,0.7c-0.1,0.2-0.1,0.5-0.1,0.8c0,0.5,0.1,0.8,0.3,1
		c0.2,0.2,0.5,0.4,0.9,0.4C79.2,53.6,79.4,53.6,79.6,53.5 M76.5,53.4c0.2-0.2,0.4-0.4,0.5-0.7l-0.4-0.2c-0.1,0.2-0.3,0.4-0.4,0.5
		c-0.1,0.1-0.3,0.1-0.4,0.1c-0.3,0-0.4-0.1-0.6-0.2c-0.1-0.1-0.2-0.3-0.2-0.6c0,0,0-0.1,0-0.1c0-0.1,0-0.1,0-0.2l0.1-0.5
		c0.1-0.3,0.2-0.5,0.3-0.7c0.2-0.2,0.4-0.3,0.6-0.3c0.4,0,0.6,0.2,0.7,0.5l0.4-0.2c-0.1-0.2-0.2-0.4-0.4-0.6
		c-0.2-0.1-0.4-0.2-0.7-0.2c-0.2,0-0.5,0.1-0.7,0.2s-0.4,0.3-0.5,0.5c-0.1,0.2-0.2,0.4-0.3,0.7c-0.1,0.3-0.1,0.5-0.1,0.8
		c0,0.2,0,0.4,0.1,0.6s0.1,0.3,0.2,0.4s0.2,0.2,0.4,0.3c0.1,0.1,0.3,0.1,0.5,0.1C76,53.6,76.3,53.6,76.5,53.4 M73.4,53.4
		c0.2-0.2,0.4-0.4,0.5-0.7l-0.4-0.2c-0.1,0.2-0.3,0.4-0.4,0.5c-0.1,0.1-0.3,0.1-0.4,0.1c-0.3,0-0.4-0.1-0.6-0.2
		C72,52.8,72,52.6,72,52.4c0,0,0-0.1,0-0.1c0-0.1,0-0.1,0-0.2l0.1-0.5c0.1-0.3,0.2-0.5,0.3-0.7c0.2-0.2,0.4-0.3,0.6-0.3
		c0.3,0,0.6,0.2,0.7,0.5l0.4-0.2c-0.1-0.2-0.2-0.4-0.4-0.6c-0.2-0.1-0.4-0.2-0.7-0.2c-0.2,0-0.5,0.1-0.7,0.2
		c-0.2,0.1-0.4,0.3-0.5,0.5c-0.1,0.2-0.2,0.4-0.3,0.7c-0.1,0.3-0.1,0.5-0.1,0.8c0,0.2,0,0.4,0.1,0.6c0.1,0.2,0.1,0.3,0.2,0.4
		c0.1,0.1,0.2,0.2,0.4,0.3c0.1,0.1,0.3,0.1,0.5,0.1C72.9,53.6,73.2,53.6,73.4,53.4 M68.4,53c-0.1-0.1-0.2-0.3-0.2-0.5
		c0-0.1,0-0.2,0-0.3l0.1-0.5c0.1-0.3,0.2-0.6,0.4-0.7c0.2-0.2,0.4-0.3,0.7-0.3c0.1,0,0.3,0,0.4,0.1c0.1,0,0.2,0.1,0.2,0.2
		c0.1,0.1,0.1,0.2,0.1,0.2c0,0.1,0,0.2,0,0.3L70,52.1c0,0.2-0.1,0.3-0.1,0.4c-0.1,0.1-0.2,0.2-0.3,0.4c-0.1,0.1-0.2,0.2-0.3,0.2
		c-0.1,0.1-0.2,0.1-0.4,0.1C68.7,53.2,68.5,53.1,68.4,53 M70.6,53.6l0.1-0.4h-0.5l0.6-2.9h-0.5l-0.1,0.5h0c0-0.1-0.1-0.2-0.1-0.3
		c-0.1-0.1-0.1-0.1-0.2-0.2c-0.1-0.1-0.2-0.1-0.3-0.1c-0.1,0-0.2,0-0.3,0c-0.3,0-0.5,0.1-0.7,0.2c-0.2,0.1-0.4,0.3-0.5,0.5
		c-0.1,0.2-0.2,0.5-0.3,0.7c-0.1,0.3-0.1,0.5-0.1,0.8c0,0.4,0.1,0.7,0.3,0.9c0.2,0.2,0.4,0.3,0.7,0.3c0.2,0,0.4-0.1,0.6-0.2
		c0.2-0.1,0.3-0.3,0.4-0.6h0l0,0.1c0,0.1,0,0.1,0,0.2c0,0.1,0,0.2,0.1,0.3c0.1,0.1,0.2,0.1,0.3,0.1H70.6z"/>
	<path class="st3" d="M133.8,45.1l-0.6,1.2h0l-0.1-1.2l-0.2-1.6h-0.5l0.5,3.4l-0.4,0.8h-0.6l-0.1,0.4h0.5c0.2,0,0.3,0,0.4-0.1
		c0.1-0.1,0.2-0.2,0.3-0.4l2.2-4h-0.5L133.8,45.1z M130.2,46.7l0.4-2c0-0.1,0.1-0.2,0.1-0.3c0.1-0.1,0.1-0.2,0.2-0.3
		c0.1-0.1,0.2-0.1,0.3-0.2c0.1,0,0.2-0.1,0.4-0.1h0.2l0.1-0.5h-0.2c-0.1,0-0.3,0-0.4,0.1c-0.1,0-0.2,0.1-0.3,0.1
		c-0.1,0.1-0.1,0.1-0.2,0.2c-0.1,0.1-0.1,0.2-0.2,0.2h0l0.1-0.7h-0.5l-0.7,3.3H130.2z M128.3,43.8c0.1,0,0.1,0,0.2,0.1
		c0.1,0,0.1,0.1,0.1,0.1c0,0.1,0.1,0.1,0.1,0.2c0,0.1,0,0.2-0.1,0.3c0,0.1-0.1,0.2-0.3,0.2c-0.1,0.1-0.3,0.1-0.5,0.1
		c-0.2,0-0.5,0.1-0.9,0.1l0-0.2c0-0.1,0.1-0.3,0.1-0.4c0.1-0.1,0.1-0.2,0.2-0.3c0.1-0.1,0.2-0.1,0.3-0.2c0.1,0,0.2-0.1,0.4-0.1
		C128.2,43.8,128.3,43.8,128.3,43.8 M128.4,46.6c0.2-0.1,0.4-0.3,0.6-0.5l-0.3-0.3c-0.1,0.2-0.3,0.3-0.4,0.4
		c-0.2,0.1-0.4,0.1-0.6,0.1c-0.3,0-0.4-0.1-0.6-0.2c-0.1-0.1-0.2-0.3-0.2-0.6c0,0,0-0.1,0-0.1c0,0,0-0.1,0-0.1
		c0.8,0,1.3-0.1,1.7-0.3c0.4-0.2,0.6-0.4,0.6-0.8c0-0.2,0-0.3-0.1-0.4c-0.1-0.1-0.1-0.2-0.2-0.3c-0.1-0.1-0.2-0.1-0.3-0.2
		c-0.1,0-0.3-0.1-0.4-0.1c-0.3,0-0.5,0.1-0.7,0.2c-0.2,0.1-0.4,0.3-0.5,0.5c-0.2,0.2-0.3,0.4-0.3,0.7c-0.1,0.2-0.1,0.5-0.1,0.8
		c0,0.5,0.1,0.8,0.3,1c0.2,0.2,0.5,0.4,0.9,0.4C127.9,46.8,128.2,46.7,128.4,46.6 M124.6,46.7l1.8-3.3h-0.5l-0.9,1.6l-0.6,1.2h0
		l-0.1-1.2l-0.2-1.6h-0.5l0.5,3.3H124.6z M120.7,46.1c-0.1-0.1-0.2-0.3-0.2-0.6c0-0.1,0-0.2,0-0.3l0.1-0.5c0.1-0.3,0.2-0.6,0.4-0.8
		c0.2-0.2,0.4-0.3,0.6-0.3c0.2,0,0.4,0.1,0.6,0.2c0.1,0.1,0.2,0.3,0.2,0.6c0,0.1,0,0.2,0,0.3l-0.1,0.5c-0.1,0.3-0.2,0.6-0.4,0.8
		c-0.2,0.2-0.4,0.3-0.6,0.3C121,46.4,120.8,46.3,120.7,46.1 M121.9,46.6c0.2-0.1,0.4-0.3,0.5-0.5c0.1-0.2,0.3-0.4,0.3-0.7
		c0.1-0.3,0.1-0.5,0.1-0.8c0-0.2,0-0.4-0.1-0.6c-0.1-0.2-0.1-0.3-0.2-0.4c-0.1-0.1-0.2-0.2-0.4-0.3c-0.1-0.1-0.3-0.1-0.5-0.1
		c-0.2,0-0.5,0.1-0.7,0.2c-0.2,0.1-0.4,0.3-0.5,0.5c-0.1,0.2-0.3,0.4-0.3,0.7c-0.1,0.3-0.1,0.5-0.1,0.8c0,0.2,0,0.4,0.1,0.6
		c0.1,0.2,0.1,0.3,0.2,0.4c0.1,0.1,0.2,0.2,0.4,0.3c0.1,0.1,0.3,0.1,0.5,0.1C121.4,46.8,121.7,46.7,121.9,46.6 M118.8,46.6
		c0.2-0.2,0.4-0.4,0.5-0.7l-0.4-0.2c-0.1,0.2-0.3,0.4-0.4,0.5c-0.1,0.1-0.3,0.1-0.4,0.1c-0.3,0-0.4-0.1-0.6-0.2
		c-0.1-0.1-0.2-0.3-0.2-0.6c0,0,0-0.1,0-0.1c0-0.1,0-0.1,0-0.2l0.1-0.5c0.1-0.3,0.2-0.5,0.3-0.7c0.2-0.2,0.4-0.3,0.6-0.3
		c0.3,0,0.6,0.2,0.7,0.5l0.4-0.2c-0.1-0.2-0.2-0.4-0.4-0.6c-0.2-0.1-0.4-0.2-0.7-0.2c-0.2,0-0.5,0.1-0.7,0.2
		c-0.2,0.1-0.4,0.3-0.5,0.5c-0.1,0.2-0.2,0.4-0.3,0.7c-0.1,0.3-0.1,0.5-0.1,0.8c0,0.2,0,0.4,0.1,0.6c0.1,0.2,0.1,0.3,0.2,0.4
		s0.2,0.2,0.4,0.3c0.1,0.1,0.3,0.1,0.5,0.1C118.4,46.8,118.6,46.7,118.8,46.6 M115.3,46.7c0.1-0.1,0.3-0.1,0.4-0.2
		c0.1-0.1,0.2-0.2,0.3-0.3c0.1-0.1,0.1-0.3,0.1-0.5c0-0.1,0-0.3-0.1-0.4s-0.1-0.2-0.2-0.2c-0.1-0.1-0.2-0.1-0.3-0.2
		c-0.1,0-0.2-0.1-0.4-0.1l-0.2-0.1c-0.2,0-0.3-0.1-0.4-0.2c-0.1-0.1-0.1-0.2-0.1-0.3c0-0.2,0.1-0.3,0.2-0.4c0.1-0.1,0.3-0.2,0.5-0.2
		c0.2,0,0.4,0,0.5,0.1c0.1,0.1,0.2,0.2,0.3,0.3l0.3-0.3c-0.1-0.2-0.3-0.3-0.4-0.4c-0.2-0.1-0.4-0.1-0.6-0.1c-0.2,0-0.4,0-0.5,0.1
		c-0.2,0.1-0.3,0.1-0.4,0.2c-0.1,0.1-0.2,0.2-0.2,0.3c0,0.1-0.1,0.3-0.1,0.4c0,0.1,0,0.3,0.1,0.3c0,0.1,0.1,0.2,0.2,0.2
		c0.1,0.1,0.2,0.1,0.3,0.2c0.1,0,0.2,0.1,0.3,0.1l0.2,0c0.2,0,0.3,0.1,0.4,0.2c0.1,0.1,0.1,0.2,0.1,0.3c0,0.2-0.1,0.4-0.2,0.5
		c-0.1,0.1-0.3,0.2-0.5,0.2c-0.2,0-0.4,0-0.5-0.1c-0.1-0.1-0.3-0.2-0.4-0.3l-0.3,0.3c0.1,0.2,0.3,0.3,0.5,0.4
		c0.2,0.1,0.5,0.2,0.7,0.2C115,46.8,115.2,46.8,115.3,46.7 M113,46.7l0.1-0.4h-0.5l0.6-2.9h-0.5l-0.5,2.7c0,0.1,0,0.1,0,0.2
		c0,0.1,0,0.2,0.1,0.3c0.1,0.1,0.2,0.1,0.3,0.1H113z M113.3,42.6c0.1,0,0.1-0.1,0.1-0.2c0-0.1,0-0.1,0-0.1c0,0,0,0,0-0.1
		c0-0.1,0-0.1-0.1-0.2c0,0-0.1-0.1-0.2-0.1c-0.1,0-0.2,0-0.2,0.1c-0.1,0-0.1,0.1-0.1,0.2c0,0.1,0,0.1,0,0.1c0,0,0,0,0,0.1
		c0,0.1,0,0.1,0.1,0.2c0,0,0.1,0.1,0.2,0.1C113.2,42.6,113.3,42.6,113.3,42.6 M109,46.1c-0.1-0.1-0.1-0.3-0.1-0.5c0-0.1,0-0.2,0-0.3
		l0.1-0.5c0.1-0.3,0.2-0.6,0.4-0.7c0.2-0.2,0.4-0.3,0.7-0.3c0.1,0,0.3,0,0.4,0.1c0.1,0,0.2,0.1,0.2,0.2c0.1,0.1,0.1,0.2,0.1,0.2
		c0,0.1,0,0.2,0,0.3l-0.1,0.7c0,0.2-0.1,0.3-0.2,0.4c-0.1,0.1-0.2,0.2-0.3,0.4c-0.1,0.1-0.2,0.2-0.3,0.2c-0.1,0.1-0.2,0.1-0.4,0.1
		C109.3,46.3,109.1,46.3,109,46.1 M111.3,46.7l0.1-0.4h-0.5l0.9-4.3h-0.5l-0.4,2h0c0-0.1-0.1-0.2-0.1-0.3s-0.1-0.1-0.2-0.2
		c-0.1-0.1-0.2-0.1-0.3-0.1c-0.1,0-0.2,0-0.3,0c-0.3,0-0.5,0.1-0.7,0.2c-0.2,0.1-0.4,0.3-0.5,0.5c-0.1,0.2-0.2,0.5-0.3,0.7
		c-0.1,0.3-0.1,0.5-0.1,0.8c0,0.4,0.1,0.7,0.3,0.9c0.2,0.2,0.4,0.3,0.7,0.3c0.2,0,0.4-0.1,0.6-0.2c0.2-0.1,0.3-0.3,0.4-0.6h0l0,0.1
		c0,0.1,0,0.1,0,0.2c0,0.1,0,0.2,0.1,0.3c0.1,0.1,0.2,0.1,0.3,0.1H111.3z M104.4,45.1c-0.1-0.1-0.1-0.2-0.1-0.4c0,0,0-0.1,0-0.1
		c0,0,0-0.1,0-0.2c0-0.2,0.1-0.3,0.2-0.5c0.1-0.1,0.3-0.2,0.5-0.2c0.2,0,0.4,0,0.4,0.1c0.1,0.1,0.1,0.2,0.1,0.4c0,0,0,0.1,0,0.1
		c0,0,0,0.1,0,0.2c0,0.2-0.1,0.3-0.2,0.5c-0.1,0.1-0.3,0.2-0.5,0.2C104.6,45.2,104.5,45.2,104.4,45.1 M105.4,47.5
		c-0.2,0.1-0.4,0.2-0.8,0.2h-0.3c-0.1,0-0.2,0-0.3,0c-0.1,0-0.2-0.1-0.2-0.1s-0.1-0.1-0.1-0.2c0-0.1,0-0.1,0-0.2
		c0-0.2,0.1-0.4,0.4-0.5h1.1c0.2,0,0.3,0,0.4,0.1c0.1,0.1,0.1,0.2,0.1,0.3C105.6,47.2,105.6,47.4,105.4,47.5 M105.9,46.4
		c-0.2-0.1-0.4-0.2-0.8-0.2h-0.7c-0.3,0-0.4-0.1-0.4-0.2c0-0.1,0-0.2,0.1-0.3c0.1-0.1,0.2-0.1,0.4-0.1c0,0,0.1,0,0.1,0
		c0,0,0.1,0,0.1,0c0.2,0,0.4,0,0.6-0.1c0.2-0.1,0.3-0.2,0.4-0.3c0.1-0.1,0.2-0.3,0.3-0.4c0.1-0.2,0.1-0.3,0.1-0.5
		c0-0.3-0.1-0.5-0.2-0.6l0.1-0.3h0.6l0.1-0.4h-0.5c-0.1,0-0.2,0-0.3,0.1c-0.1,0.1-0.1,0.2-0.1,0.3l0,0.1c-0.2-0.1-0.4-0.1-0.6-0.1
		c-0.2,0-0.4,0-0.6,0.1c-0.2,0.1-0.3,0.2-0.4,0.3s-0.2,0.3-0.3,0.4c-0.1,0.2-0.1,0.3-0.1,0.5c0,0.4,0.1,0.7,0.4,0.8l0,0
		c-0.2,0-0.4,0.1-0.5,0.2c-0.1,0.1-0.2,0.2-0.2,0.4c0,0.2,0.1,0.3,0.3,0.4l0,0.1c-0.2,0.1-0.4,0.2-0.5,0.3c-0.1,0.1-0.2,0.3-0.2,0.4
		c0,0.5,0.4,0.7,1.3,0.7c0.3,0,0.6,0,0.8-0.1c0.2-0.1,0.4-0.1,0.5-0.2c0.1-0.1,0.2-0.2,0.3-0.4c0.1-0.1,0.1-0.3,0.1-0.4
		C106.1,46.7,106.1,46.5,105.9,46.4 M100.3,46.7l0.4-1.8c0-0.1,0.1-0.3,0.2-0.4c0.1-0.2,0.2-0.3,0.3-0.4c0.2-0.2,0.4-0.3,0.6-0.3
		c0.2,0,0.3,0,0.4,0.1c0.1,0.1,0.1,0.2,0.1,0.4c0,0,0,0.1,0,0.1c0,0.1,0,0.1,0,0.2l-0.3,1.5c0,0,0,0.1,0,0.1v0.1
		c0,0.1,0,0.2,0.1,0.3c0.1,0.1,0.2,0.1,0.3,0.1h0.5l0.1-0.4h-0.5l0.3-1.6c0-0.1,0-0.2,0-0.2c0-0.1,0-0.1,0-0.2
		c0-0.3-0.1-0.5-0.2-0.7c-0.1-0.2-0.3-0.2-0.6-0.2c-0.2,0-0.4,0.1-0.6,0.2s-0.3,0.3-0.4,0.5h0l0.1-0.7h-0.5l-0.7,3.3H100.3z
		 M99,46.7l0.1-0.4h-0.5l0.6-2.9h-0.5l-0.5,2.7c0,0.1,0,0.1,0,0.2c0,0.1,0,0.2,0.1,0.3c0.1,0.1,0.2,0.1,0.3,0.1H99z M99.4,42.6
		c0.1,0,0.1-0.1,0.1-0.2c0-0.1,0-0.1,0-0.1c0,0,0,0,0-0.1c0-0.1,0-0.1-0.1-0.2c0,0-0.1-0.1-0.2-0.1c-0.1,0-0.2,0-0.2,0.1
		c-0.1,0-0.1,0.1-0.1,0.2c0,0.1,0,0.1,0,0.1c0,0,0,0,0,0.1c0,0.1,0,0.1,0.1,0.2c0,0,0.1,0.1,0.2,0.1C99.3,42.6,99.3,42.6,99.4,42.6
		 M97.2,46.7l0.1-0.4h-0.6l0.5-2.4h0.7l0.1-0.4h-0.7l0.2-0.9H97l-0.1,0.6c0,0.1-0.1,0.2-0.1,0.2s-0.1,0.1-0.2,0.1h-0.2l-0.1,0.4h0.5
		l-0.5,2.3c0,0.1,0,0.1,0,0.2c0,0.1,0,0.2,0.1,0.3c0.1,0.1,0.2,0.1,0.3,0.1H97.2z M93,46.1c-0.1-0.1-0.2-0.3-0.2-0.5
		c0-0.1,0-0.2,0-0.3l0.1-0.5c0.1-0.3,0.2-0.6,0.4-0.7c0.2-0.2,0.4-0.3,0.7-0.3c0.1,0,0.3,0,0.4,0.1c0.1,0,0.2,0.1,0.2,0.2
		c0.1,0.1,0.1,0.2,0.1,0.2c0,0.1,0,0.2,0,0.3l-0.1,0.7c0,0.2-0.1,0.3-0.1,0.4c-0.1,0.1-0.2,0.2-0.3,0.4c-0.1,0.1-0.2,0.2-0.3,0.2
		c-0.1,0.1-0.2,0.1-0.4,0.1C93.3,46.3,93.1,46.3,93,46.1 M95.2,46.7l0.1-0.4h-0.5l0.6-2.9h-0.5L94.8,44h0c0-0.1-0.1-0.2-0.1-0.3
		s-0.1-0.1-0.2-0.2c-0.1-0.1-0.2-0.1-0.3-0.1c-0.1,0-0.2,0-0.3,0c-0.3,0-0.5,0.1-0.7,0.2c-0.2,0.1-0.4,0.3-0.5,0.5
		c-0.1,0.2-0.2,0.5-0.3,0.7c-0.1,0.3-0.1,0.5-0.1,0.8c0,0.4,0.1,0.7,0.3,0.9c0.2,0.2,0.4,0.3,0.7,0.3c0.2,0,0.4-0.1,0.6-0.2
		c0.2-0.1,0.3-0.3,0.5-0.6h0l0,0.1c0,0.1,0,0.1,0,0.2c0,0.1,0,0.2,0.1,0.3c0.1,0.1,0.2,0.1,0.3,0.1H95.2z M90.4,46.7l0.4-2
		c0-0.1,0.1-0.2,0.1-0.3c0.1-0.1,0.1-0.2,0.2-0.3c0.1-0.1,0.2-0.1,0.3-0.2c0.1,0,0.2-0.1,0.4-0.1h0.2l0.1-0.5H92
		c-0.1,0-0.3,0-0.4,0.1c-0.1,0-0.2,0.1-0.3,0.1c-0.1,0.1-0.1,0.1-0.2,0.2C91.1,43.9,91,44,91,44.1h0l0.1-0.7h-0.5l-0.7,3.3H90.4z
		 M88.6,43.8c0.1,0,0.1,0,0.2,0.1s0.1,0.1,0.1,0.1c0,0.1,0.1,0.1,0.1,0.2c0,0.1,0,0.2-0.1,0.3c0,0.1-0.1,0.2-0.3,0.2
		c-0.1,0.1-0.3,0.1-0.5,0.1c-0.2,0-0.5,0.1-0.9,0.1l0-0.2c0-0.1,0.1-0.3,0.1-0.4c0.1-0.1,0.1-0.2,0.2-0.3c0.1-0.1,0.2-0.1,0.3-0.2
		s0.2-0.1,0.4-0.1C88.5,43.8,88.5,43.8,88.6,43.8 M88.7,46.6c0.2-0.1,0.4-0.3,0.6-0.5L89,45.8c-0.1,0.2-0.3,0.3-0.4,0.4
		c-0.2,0.1-0.4,0.1-0.6,0.1c-0.3,0-0.4-0.1-0.6-0.2c-0.1-0.1-0.2-0.3-0.2-0.6c0,0,0-0.1,0-0.1c0,0,0-0.1,0-0.1
		c0.8,0,1.3-0.1,1.7-0.3c0.4-0.2,0.6-0.4,0.6-0.8c0-0.2,0-0.3-0.1-0.4c-0.1-0.1-0.1-0.2-0.2-0.3c-0.1-0.1-0.2-0.1-0.3-0.2
		c-0.1,0-0.3-0.1-0.4-0.1c-0.3,0-0.5,0.1-0.7,0.2c-0.2,0.1-0.4,0.3-0.5,0.5c-0.2,0.2-0.3,0.4-0.3,0.7c-0.1,0.2-0.1,0.5-0.1,0.8
		c0,0.5,0.1,0.8,0.3,1c0.2,0.2,0.5,0.4,0.9,0.4C88.2,46.8,88.4,46.7,88.7,46.6 M85.9,46.7l0.1-0.4h-0.5l0.9-4.3h-0.5L85,46.2
		c0,0.1,0,0.1,0,0.2c0,0.1,0,0.2,0.1,0.3c0.1,0.1,0.2,0.1,0.3,0.1H85.9z M83.6,43.8c0.1,0,0.1,0,0.2,0.1s0.1,0.1,0.1,0.1
		c0,0.1,0,0.1,0,0.2c0,0.1,0,0.2-0.1,0.3c0,0.1-0.1,0.2-0.3,0.2c-0.1,0.1-0.3,0.1-0.5,0.1c-0.2,0-0.5,0.1-0.9,0.1l0-0.2
		c0-0.1,0.1-0.3,0.1-0.4c0.1-0.1,0.1-0.2,0.2-0.3c0.1-0.1,0.2-0.1,0.3-0.2s0.2-0.1,0.4-0.1C83.4,43.8,83.5,43.8,83.6,43.8
		 M83.6,46.6c0.2-0.1,0.4-0.3,0.6-0.5L84,45.8c-0.1,0.2-0.3,0.3-0.4,0.4c-0.2,0.1-0.4,0.1-0.6,0.1c-0.3,0-0.4-0.1-0.6-0.2
		c-0.1-0.1-0.2-0.3-0.2-0.6c0,0,0-0.1,0-0.1c0,0,0-0.1,0-0.1c0.8,0,1.3-0.1,1.7-0.3c0.4-0.2,0.6-0.4,0.6-0.8c0-0.2,0-0.3-0.1-0.4
		c-0.1-0.1-0.1-0.2-0.2-0.3c-0.1-0.1-0.2-0.1-0.3-0.2c-0.1,0-0.3-0.1-0.4-0.1c-0.3,0-0.5,0.1-0.7,0.2c-0.2,0.1-0.4,0.3-0.5,0.5
		c-0.2,0.2-0.3,0.4-0.3,0.7c-0.1,0.2-0.1,0.5-0.1,0.8c0,0.5,0.1,0.8,0.3,1c0.2,0.2,0.5,0.4,0.9,0.4C83.2,46.8,83.4,46.7,83.6,46.6
		 M80.5,46.6c0.2-0.2,0.4-0.4,0.5-0.7l-0.4-0.2c-0.1,0.2-0.3,0.4-0.4,0.5c-0.1,0.1-0.3,0.1-0.4,0.1c-0.3,0-0.4-0.1-0.6-0.2
		c-0.1-0.1-0.2-0.3-0.2-0.6c0,0,0-0.1,0-0.1c0-0.1,0-0.1,0-0.2l0.1-0.5c0.1-0.3,0.2-0.5,0.3-0.7c0.2-0.2,0.4-0.3,0.6-0.3
		c0.4,0,0.6,0.2,0.7,0.5l0.4-0.2c-0.1-0.2-0.2-0.4-0.4-0.6c-0.2-0.1-0.4-0.2-0.7-0.2c-0.2,0-0.5,0.1-0.7,0.2S79.2,43.8,79,44
		c-0.1,0.2-0.2,0.4-0.3,0.7c-0.1,0.3-0.1,0.5-0.1,0.8c0,0.2,0,0.4,0.1,0.6c0.1,0.2,0.1,0.3,0.2,0.4s0.2,0.2,0.4,0.3
		c0.1,0.1,0.3,0.1,0.5,0.1C80.1,46.8,80.3,46.7,80.5,46.6 M77.4,46.6c0.2-0.2,0.4-0.4,0.5-0.7l-0.4-0.2c-0.1,0.2-0.3,0.4-0.4,0.5
		c-0.1,0.1-0.3,0.1-0.4,0.1c-0.3,0-0.4-0.1-0.6-0.2C76,46,76,45.8,76,45.6c0,0,0-0.1,0-0.1c0-0.1,0-0.1,0-0.2l0.1-0.5
		c0.1-0.3,0.2-0.5,0.3-0.7c0.2-0.2,0.4-0.3,0.6-0.3c0.3,0,0.6,0.2,0.7,0.5l0.4-0.2c-0.1-0.2-0.2-0.4-0.4-0.6
		c-0.2-0.1-0.4-0.2-0.7-0.2c-0.2,0-0.5,0.1-0.7,0.2c-0.2,0.1-0.4,0.3-0.5,0.5c-0.1,0.2-0.2,0.4-0.3,0.7c-0.1,0.3-0.1,0.5-0.1,0.8
		c0,0.2,0,0.4,0.1,0.6c0.1,0.2,0.1,0.3,0.2,0.4c0.1,0.1,0.2,0.2,0.4,0.3c0.1,0.1,0.3,0.1,0.5,0.1C76.9,46.8,77.2,46.7,77.4,46.6
		 M72.4,46.1c-0.1-0.1-0.2-0.3-0.2-0.5c0-0.1,0-0.2,0-0.3l0.1-0.5c0.1-0.3,0.2-0.6,0.4-0.7c0.2-0.2,0.4-0.3,0.7-0.3
		c0.1,0,0.3,0,0.4,0.1c0.1,0,0.2,0.1,0.2,0.2c0.1,0.1,0.1,0.2,0.1,0.2c0,0.1,0,0.2,0,0.3L74,45.2c0,0.2-0.1,0.3-0.1,0.4
		c-0.1,0.1-0.2,0.2-0.3,0.4c-0.1,0.1-0.2,0.2-0.3,0.2c-0.1,0.1-0.2,0.1-0.4,0.1C72.7,46.3,72.5,46.3,72.4,46.1 M74.6,46.7l0.1-0.4
		h-0.5l0.6-2.9h-0.5L74.2,44h0c0-0.1-0.1-0.2-0.1-0.3c-0.1-0.1-0.1-0.1-0.2-0.2c-0.1-0.1-0.2-0.1-0.3-0.1c-0.1,0-0.2,0-0.3,0
		c-0.3,0-0.5,0.1-0.7,0.2c-0.2,0.1-0.4,0.3-0.5,0.5c-0.1,0.2-0.2,0.5-0.3,0.7c-0.1,0.3-0.1,0.5-0.1,0.8c0,0.4,0.1,0.7,0.3,0.9
		c0.2,0.2,0.4,0.3,0.7,0.3c0.2,0,0.4-0.1,0.6-0.2c0.2-0.1,0.3-0.3,0.4-0.6h0l0,0.1c0,0.1,0,0.1,0,0.2c0,0.1,0,0.2,0.1,0.3
		c0.1,0.1,0.2,0.1,0.3,0.1H74.6z"/>
	<path class="st3" d="M169.8,53.5c0.2-0.1,0.4-0.2,0.5-0.3s0.2-0.3,0.3-0.5c0.1-0.2,0.1-0.4,0.1-0.5c0-0.2,0-0.3-0.1-0.4
		c-0.1-0.1-0.1-0.2-0.2-0.3c-0.1-0.1-0.2-0.2-0.3-0.2c-0.1-0.1-0.3-0.1-0.4-0.1l-0.3-0.1c-0.1,0-0.2-0.1-0.3-0.1
		c-0.1-0.1-0.1-0.2-0.1-0.3c0-0.1,0.1-0.3,0.2-0.4c0.1-0.1,0.3-0.1,0.5-0.1c0.2,0,0.4,0,0.5,0.1c0.1,0.1,0.2,0.2,0.3,0.3l0.6-0.6
		c-0.1-0.2-0.3-0.3-0.6-0.4c-0.2-0.1-0.5-0.1-0.8-0.1c-0.2,0-0.4,0-0.6,0.1c-0.2,0.1-0.4,0.2-0.5,0.3c-0.1,0.1-0.2,0.3-0.3,0.4
		c-0.1,0.2-0.1,0.3-0.1,0.5c0,0.2,0,0.3,0.1,0.4c0,0.1,0.1,0.2,0.2,0.3c0.1,0.1,0.2,0.2,0.3,0.2c0.1,0.1,0.2,0.1,0.4,0.1l0.3,0.1
		c0.1,0,0.2,0.1,0.3,0.1c0.1,0.1,0.1,0.2,0.1,0.3c0,0.2-0.1,0.3-0.2,0.4c-0.1,0.1-0.3,0.2-0.6,0.2c-0.2,0-0.4,0-0.5-0.1
		c-0.1-0.1-0.2-0.2-0.3-0.4l-0.6,0.5c0.1,0.3,0.3,0.5,0.6,0.6c0.3,0.1,0.6,0.2,0.9,0.2C169.4,53.6,169.6,53.6,169.8,53.5 M166,53.6
		h0.9l0.8-4.2h-0.8l-0.5,2.9h0l-0.2-0.8l-0.6-2h-0.9l-0.8,4.2h0.8l0.5-2.9h0l0.2,0.8L166,53.6z M162.2,51.8h-0.9l0.7-1.7h0
		L162.2,51.8z M163.2,53.6l-0.5-4.2h-1.1l-2.1,4.2h0.9l0.5-1h1.3l0.1,1H163.2z"/>
	<path class="st3" d="M150.7,52.9c-0.3-0.5-0.5-1.2-0.5-2c0-0.3,0-0.6,0-0.8c0-0.3,0.1-0.6,0.1-0.9l0.5-2.7c0.1-0.6,0.3-1.2,0.5-1.8
		c0.2-0.5,0.4-1,0.6-1.4c0.2-0.4,0.5-0.7,0.9-0.9c0.3-0.2,0.7-0.3,1.2-0.3c0.7,0,1.3,0.2,1.6,0.7c0.3,0.5,0.5,1.2,0.5,2
		c0,0.3,0,0.6,0,0.8c0,0.3-0.1,0.6-0.1,0.9l-0.5,2.7c-0.1,0.7-0.3,1.3-0.5,1.8c-0.2,0.5-0.4,1-0.6,1.4c-0.2,0.4-0.5,0.7-0.9,0.9
		c-0.3,0.2-0.7,0.3-1.2,0.3C151.5,53.6,151,53.4,150.7,52.9 M155,55c0.8-0.6,1.6-1.4,2.1-2.4c0.6-1,1-2.1,1.3-3.4
		c0.3-1.3,0.4-2.6,0.4-3.9c0-0.7-0.1-1.4-0.2-2.1c-0.1-0.7-0.4-1.3-0.7-1.8c-0.3-0.5-0.8-1-1.4-1.3c-0.6-0.3-1.3-0.5-2.2-0.5
		c-1.1,0-2.1,0.3-3,0.9c-0.9,0.6-1.6,1.4-2.1,2.4c-0.6,1-1,2.1-1.3,3.4c-0.3,1.3-0.4,2.6-0.4,3.9c0,0.7,0.1,1.4,0.2,2.1
		c0.1,0.7,0.4,1.3,0.7,1.8c0.3,0.5,0.8,1,1.4,1.3c0.6,0.3,1.3,0.5,2.2,0.5C153.1,56,154.1,55.7,155,55 M145.6,53.3h-6.9l3.7-2.9
		c0.7-0.5,1.3-1.1,1.9-1.5c0.6-0.5,1-1,1.4-1.5c0.4-0.5,0.7-1.1,0.9-1.6c0.2-0.6,0.3-1.2,0.3-1.9c0-0.6-0.1-1.2-0.3-1.7
		c-0.2-0.5-0.5-1-0.9-1.3c-0.4-0.4-0.9-0.7-1.4-0.9c-0.6-0.2-1.2-0.3-1.9-0.3c-0.7,0-1.3,0.1-1.9,0.3c-0.6,0.2-1.1,0.5-1.5,0.8
		c-0.4,0.3-0.8,0.8-1.2,1.2c-0.3,0.5-0.6,1-0.9,1.6l2.3,1c0.3-0.7,0.6-1.2,1.1-1.7c0.5-0.5,1-0.7,1.7-0.7c0.6,0,1.1,0.2,1.4,0.6
		c0.3,0.4,0.5,0.8,0.5,1.4c0,0.3,0,0.5-0.1,0.7c-0.1,0.6-0.4,1.2-0.8,1.8c-0.4,0.6-1.1,1.3-2.1,2l-5.5,4.3l-0.5,2.7h10.1L145.6,53.3
		z"/>
</g>
</svg>
